<?xml version="1.0" encoding="UTF-8" standalone="no"?>
<svg
   xmlns:dc="http://purl.org/dc/elements/1.1/"
   xmlns:cc="http://creativecommons.org/ns#"
   xmlns:rdf="http://www.w3.org/1999/02/22-rdf-syntax-ns#"
   xmlns:svg="http://www.w3.org/2000/svg"
   xmlns="http://www.w3.org/2000/svg"
   xmlns:sodipodi="http://sodipodi.sourceforge.net/DTD/sodipodi-0.dtd"
   xmlns:inkscape="http://www.inkscape.org/namespaces/inkscape"
   fill="none"
   viewBox="0 0 143 32"
   version="1.1"
   id="svg8"
   sodipodi:docname="logo.svg"
   inkscape:version="1.0.2 (e86c870879, 2021-01-15, custom)">
  <metadata
     id="metadata14">
    <rdf:RDF>
      <cc:Work
         rdf:about="">
        <dc:format>image/svg+xml</dc:format>
        <dc:type
           rdf:resource="http://purl.org/dc/dcmitype/StillImage" />
        <dc:title></dc:title>
      </cc:Work>
    </rdf:RDF>
  </metadata>
  <defs
     id="defs12">
    <inkscape:perspective
       sodipodi:type="inkscape:persp3d"
       inkscape:vp_x="0 : 16 : 1"
       inkscape:vp_y="0 : 1000 : 0"
       inkscape:vp_z="143 : 16 : 1"
       inkscape:persp3d-origin="71.5 : 10.666667 : 1"
       id="perspective994" />
  </defs>
  <sodipodi:namedview
     inkscape:document-rotation="0"
     pagecolor="#ffffff"
     bordercolor="#666666"
     borderopacity="1"
     objecttolerance="10"
     gridtolerance="10"
     guidetolerance="10"
     inkscape:pageopacity="0"
     inkscape:pageshadow="2"
     inkscape:window-width="1920"
     inkscape:window-height="1017"
     id="namedview10"
     showgrid="false"
     inkscape:zoom="5.2761044"
     inkscape:cx="57.544637"
     inkscape:cy="-23.840618"
     inkscape:window-x="-8"
     inkscape:window-y="-8"
     inkscape:window-maximized="1"
     inkscape:current-layer="g982" />
  <text
     xml:space="preserve"
     style="font-style:normal;font-variant:normal;font-weight:normal;font-stretch:normal;font-size:40px;line-height:1.25;font-family:In;-inkscape-font-specification:In;letter-spacing:0px;word-spacing:0px;fill:#000000;fill-opacity:1;stroke:none"
     x="91.734344"
     y="72.022835"
     id="text858"><tspan
       sodipodi:role="line"
       id="tspan856"
       x="91.734344"
       y="72.022835" /></text>
  <g
     id="g982">
    <path
       class="st0"
       d="M 24.65605,27.870558 H 3.2140691 C 1.4462438,27.870558 2.4703601e-7,26.423877 2.4703601e-7,24.656052 V 3.2140706 C 2.4703601e-7,1.4462453 1.4462438,1.7322604e-6 3.2140691,1.7322604e-6 H 24.65605 c 1.767826,0 3.214069,1.4462435677396 3.214069,3.2140688677396 V 24.656052 c 4.37e-4,1.767825 -1.446243,3.214506 -3.214069,3.214506 z"
       id="path4"
       style="fill:#5f6db1;fill-opacity:1;stroke-width:0.0436932" />
    <path
       id="path850"
       style="fill:#42389d;fill-opacity:1;stroke-width:0.0436932"
       d="M 27.472656,1.703125 C 16.840457,2.4895502 6.1739452,8.329064 7.7558594,7.2011719 7.7663457,7.1937441 10.243941,5.2499506 11.123047,4.7675781 11.455549,4.5853777 11.632218,4.2271632 11.427734,3.9082031 11.09785,3.3934977 10.01555,2.1074219 9.537109,2.1074219 c -0.380131,0 -2.8378848,2.3037787 -4.0468746,3.7792969 C 4.0317568,7.6663411 2.7462337,10.798085 5.8925781,10.322266 6.6143891,10.213033 12.703028,7.1769475 19.150391,5.6953125 19.464545,5.6232188 19.545272,5.6541368 19.394531,5.9394531 17.057802,10.355283 10.881802,22.283045 9.21875,27.871094 h 4.099609 c 3.295584,-9.54955 9.841797,-19.2877 9.841797,-20.4375002 0,-0.6047134 -0.479223,-1.348591 -1.058594,-1.9589844 -0.213659,-0.2254567 -0.08386,-0.5991428 0.22461,-0.6367188 0.877359,-0.1070487 1.7535,-0.1679687 2.630859,-0.1679687 1.11409,0 2.053474,0.034058 2.914063,0.082031 V 3.2148438 c 0,-0.5485765 -0.153517,-1.0586805 -0.398438,-1.5117188 z" />
    <path
       class="st1"
       d="M 5.0771454,5.6154467 C 6.2861352,4.1399286 8.7438754,1.837736 9.1240059,1.837736 c 0.4784401,0 1.5615931,1.2854528 1.8914771,1.8001582 0.204484,0.3189601 0.02796,0.6763702 -0.304542,0.8585706 C 9.8318351,4.9788373 7.3544329,6.9240568 7.3439466,6.9314846 5.5582071,8.2047033 19.379664,0.58243156 31.141863,1.3942505 c 1.964445,0.1354488 3.592452,2.6600395 3.592452,3.5234164 0,0.3456129 -0.380131,0.7253064 -0.690789,0.7253064 -0.690789,0 -2.106884,-1.2435073 -9.49933,-1.2435073 -0.877359,0 -1.75428,0.06117 -2.631639,0.1682187 -0.308474,0.037576 -0.437369,0.4107157 -0.223709,0.6361724 0.579371,0.6103934 1.058685,1.3544879 1.058685,1.9592013 0,1.3125425 -8.5324,13.8175246 -11.019415,24.4568096 -0.06903,0.276577 -0.241623,0.38013 -0.518201,0.38013 -1.070919,0 -2.8326272,-1.416095 -2.8326272,-2.245391 0,-3.70955 7.8936062,-18.963269 10.6043302,-24.0858547 C 19.132361,5.383436 19.052403,5.3528508 18.738249,5.4249445 12.290886,6.9065795 6.2026812,9.9428172 5.4808702,10.05205 2.3345258,10.527869 3.6186678,7.3950691 5.0771454,5.6154467 Z"
       id="path6"
       style="fill:#ffffff;fill-opacity:1;stroke-width:0.0436932" />
    <g
       id="g14"
       style="fill:#ffffff;fill-opacity:1"
       transform="matrix(0.04369316,0,0,0.04369316,2.47036e-7,1.7322604e-6)">
      <path
         class="st1"
         d="m 688.86,206.41 c 0,24.51 -26.09,67.99 -55.34,67.99 -28.46,0 -46.65,-18.98 -46.65,-45.06 0,-26.09 31.62,-63.25 53.76,-63.25 24.51,0 48.23,15.81 48.23,40.32 z"
         id="path8"
         style="fill:#ffffff;fill-opacity:1" />
      <path
         class="st1"
         d="m 1564.05,206.41 c 0,24.51 -26.09,67.99 -55.34,67.99 -28.46,0 -46.65,-18.98 -46.65,-45.06 0,-26.09 31.62,-63.25 53.76,-63.25 24.51,0 48.23,15.81 48.23,40.32 z"
         id="path10"
         style="fill:#ffffff;fill-opacity:1" />
      <path
         class="st1"
         d="m 1778.31,285.47 c -6.32,0 -30.04,1.58 -57.71,3.16 12.65,-22.14 17.4,-30.83 17.4,-46.65 0,-30.83 -33.99,-60.09 -54.55,-60.09 -7.11,0 -8.7,5.53 -8.7,11.86 0,6.33 -22.14,45.86 -49.02,98.04 -36.37,-0.79 -46.65,-11.86 -52.97,-11.86 -4.74,0 -10.28,6.33 -10.28,11.07 0,9.49 17.39,33.21 43.48,38.74 -30.78,60.97 -63.33,131.25 -77.75,186.28 -32.82,45.19 -88.16,113.36 -112.79,113.36 -12.65,0 -22.14,-10.28 -22.14,-30.83 0,-33.21 9.49,-58.5 67.2,-177.09 15.81,-32.41 25.3,-43.48 25.3,-60.09 0,-16.61 -46.65,-34.79 -67.2,-34.79 -11.07,0 -18.97,15.81 -29.25,41.9 -19.41,49.1 -47.07,99.44 -60.93,148.34 -32.89,45.19 -87.72,112.56 -112.2,112.56 -9.49,0 -18.18,-8.7 -18.18,-17.39 0,-38.74 93.29,-158.91 93.29,-208.72 0,-30.04 -30.05,-67.99 -77.48,-67.99 -64.83,0 -203.97,186.58 -203.97,186.58 0,0 32.42,-83.8 73.53,-168.4 39.53,-81.43 63.25,-110.68 63.25,-135.19 0,-24.51 -52.18,-49.02 -60.09,-49.02 -7.91,0 -8.7,3.95 -8.7,9.49 0,15.81 -78.27,160.49 -128.08,290.94 -6.76,17.82 -12.57,33.46 -17.58,47.32 -32.83,45.09 -86.76,110.8 -131.84,110.8 -33.99,0 -61.67,-29.25 -61.67,-69.57 0,-67.2 75.9,-173.93 121.75,-173.93 5.54,0 10.28,3.16 10.28,10.28 0,22.14 -22.93,52.18 -37.16,66.41 -4.74,4.74 -7.11,7.91 -7.11,10.28 0,5.54 18.18,25.3 37.95,25.3 19.77,0 48.23,-64.83 48.23,-100.41 0,-30.83 -37.16,-66.41 -83.8,-66.41 -66.32,0 -161.45,103.43 -175.94,186.49 -32.84,45.19 -88.04,113.15 -112.63,113.15 -12.65,0 -22.14,-10.28 -22.14,-30.83 0,-33.21 9.49,-58.5 67.2,-177.09 15.81,-32.41 25.3,-43.48 25.3,-60.09 0,-16.61 -46.65,-34.79 -67.2,-34.79 -11.07,0 -18.97,15.81 -29.25,41.9 -26.88,67.99 -69.57,138.36 -69.57,203.97 0,60.09 49.81,99.62 94.08,99.62 43.94,0 88.96,-49.5 120.19,-88.95 21.17,58.04 81.41,88.95 137.55,88.95 41.1,0 77.15,-22.97 106.15,-50.09 -0.15,2.32 -0.21,4.51 -0.21,6.61 0,21.35 41.11,48.23 56.92,48.23 15.81,0 18.18,-36.37 71.94,-113.06 53.76,-76.69 144.68,-176.3 160.49,-176.3 5.54,0 10.28,3.95 10.28,12.65 0,24.51 -83.81,131.24 -83.81,187.37 0,56.13 60.09,83.8 97.25,83.8 38.57,0 77.55,-37.72 107.49,-73.49 11.56,45.61 53.24,74.28 90.95,74.28 39.56,0 80,-40.14 110.46,-76.92 11.59,45.39 47.74,73.76 71.37,73.76 8.7,0 21.35,-11.86 21.35,-21.35 0,-12.65 -15.81,-27.67 -15.81,-67.99 0,-16.6 3.95,-53.76 52.97,-160.49 15.02,-33.21 27.67,-59.29 37.95,-79.06 19.76,1.58 37.95,2.37 49.81,2.37 29.25,0 52.18,-38.74 52.18,-46.65 0,-7.91 -3.18,-10.28 -15.83,-10.28 z"
         id="path12"
         style="fill:#ffffff;fill-opacity:1" />
    </g>
  </g>
</svg>
